<svg xmlns="http://www.w3.org/2000/svg" version="1.1" xmlns:xlink="http://www.w3.org/1999/xlink" width="869.0344065331766" height="200" viewBox="-4.310769081115723 10.65666675567627 233.08340454101562 45.94333267211914"><path d="M4.40 19.56L4.40 19.56L3.52 20.64Q2.20 23.88 2.72 26.84L2.72 26.84Q3.28 29.92 5.92 30.60L5.92 30.60Q12.92 32.40 24.44 21.60L24.44 21.60Q22.84 21.12 20.68 21.04Q18.52 20.96 16.46 21.20Q14.40 21.44 12.76 21.76Q11.12 22.08 9.92 22.40L9.92 22.40L11.04 21.28Q12.24 20.92 13.86 20.62Q15.48 20.32 17.52 20.08Q19.56 19.84 21.72 19.90Q23.88 19.96 25.44 20.44L25.44 20.44Q26.76 18.80 27.16 18.04L27.16 18.04Q27.84 16.72 27.76 15.70Q27.68 14.68 27 14.10Q26.32 13.52 25.30 13.10Q24.28 12.68 23.08 12.58Q21.88 12.48 20.76 12.42Q19.64 12.36 18.80 12.48L18.80 12.48Q16.64 12.68 14.72 13.28Q12.80 13.88 10.96 14.94Q9.12 16 7.76 16.96Q6.40 17.92 4.40 19.56ZM19.88 39.88L19.88 39.88Q20.12 39.64 21.46 38.06Q22.80 36.48 23.36 35.76L23.36 35.76L25.12 33.44Q26.24 31.88 26.78 30.82Q27.32 29.76 27.78 28.40Q28.24 27.04 28.24 25.92L28.24 25.92Q28.16 22.72 24.48 21.60L24.48 21.60Q12.08 33.64 4.80 31.72L4.80 31.72Q2.16 31.04 1.60 27.96L1.60 27.96Q1.12 25.36 2.12 22.48L2.12 22.48Q-0.08 25.48-1.34 28.38Q-2.60 31.28-3.04 34.92L-3.04 34.92Q-3.56 39.44-2.02 42.88Q-0.48 46.32 2.74 47.52Q5.96 48.72 10.68 46.80L10.68 46.80Q11.48 46.44 12.22 46.06Q12.96 45.68 13.76 45.12L13.76 45.12L14.96 44.28Q15.44 43.96 16.28 43.20L16.28 43.20L17.40 42.20Q17.68 41.96 18.68 41.02Q19.68 40.08 19.88 39.88ZM13.24 11L12.12 12.12Q11.88 12.04 11.60 11.96L11.60 11.96L11.20 11.84Q11.12 11.84 10.96 11.82Q10.80 11.80 10.78 11.82Q10.76 11.84 10.58 11.90Q10.40 11.96 10.26 12.06Q10.12 12.16 9.80 12.32Q9.48 12.48 9.12 12.64L9.12 12.64Q5.36 16.72 3.80 20.04L3.80 20.04L4.92 18.92L8.48 16.16Q9.80 15.16 11.76 13.98Q13.72 12.80 15.70 12.18Q17.68 11.56 19.92 11.36L19.92 11.36Q20.72 11.28 21.60 11.28Q22.48 11.28 23.54 11.36Q24.60 11.44 25.52 11.66Q26.44 11.88 27.24 12.32Q28.04 12.76 28.48 13.34Q28.92 13.92 28.90 14.84Q28.88 15.76 28.28 16.92L28.28 16.92Q28 17.44 27.62 17.98Q27.24 18.52 26.72 19.16L26.72 19.16L25.92 20.16L25.60 20.48Q29.32 21.60 29.36 24.80L29.36 24.80Q29.40 26.16 28.84 27.74Q28.28 29.32 27.08 31.04L27.08 31.04L25.04 33.92Q24.20 35.04 22.62 36.88Q21.04 38.72 20.72 39.12L20.72 39.12L19.60 40.24L17.72 42L15.76 43.80Q15.08 44.40 14 45.26Q12.92 46.12 11.84 46.76Q10.76 47.40 9.56 47.92L9.56 47.92Q4.80 49.84 1.58 48.64Q-1.64 47.44-3.20 44L-3.20 44Q-4.72 40.60-4.16 36.04L-4.16 36.04Q-3.64 31.80-2.08 28.64L-2.08 28.64Q-0.52 25.48 2.40 21.76L2.40 21.76Q4.04 17.88 9.04 12.68L9.04 12.68L10.16 11.56Q10.60 11.36 10.96 11.16Q11.32 10.96 11.50 10.90Q11.68 10.84 11.78 10.74Q11.88 10.64 12.02 10.66Q12.16 10.68 12.22 10.68Q12.28 10.68 12.64 10.80L12.64 10.80L13.24 11ZM33.44 16.12L34.32 15.24L34.56 15.88L33.68 16.76L33.56 16.36Q32.48 18.28 31.70 21.94Q30.92 25.60 30.54 29.86Q30.16 34.12 29.98 37.14Q29.80 40.16 29.76 42.80L29.76 42.80L28.88 43.68Q28.96 40.72 29.16 37.44Q29.36 34.16 29.82 29.52Q30.28 24.88 31.22 21.20Q32.16 17.52 33.44 16.12L33.44 16.12ZM34.64 40.40L33.52 41.52Q33.52 40.76 33.48 40.30Q33.44 39.84 33.56 39.12Q33.68 38.40 33.74 38Q33.80 37.60 34 36.92L34 36.92L34.32 35.84Q34.44 35.48 34.72 34.80L34.72 34.80L35.12 33.76L35.56 32.64Q35.84 31.96 36.04 31.52L36.04 31.52L37.16 30.40Q37.16 30.52 36.90 33.70Q36.64 36.88 36.84 39.16Q37.04 41.44 37.96 41.72L37.96 41.72Q38.28 41.80 38.58 41.60Q38.88 41.40 39.24 41Q39.60 40.60 39.80 40.48L39.80 40.48L38.68 41.60Q38.48 41.76 38.12 42.14Q37.76 42.52 37.46 42.72Q37.16 42.92 36.84 42.84L36.84 42.84Q36.24 42.68 35.94 41.74Q35.64 40.80 35.66 39.10Q35.68 37.40 35.72 36.36Q35.76 35.32 35.92 33.48L35.92 33.48Q34.44 37.32 34.64 40.40L34.64 40.40ZM35.96 26.88Q36.20 27.12 36.20 27.44Q36.20 27.76 35.96 28Q35.72 28.24 35.40 28.24Q35.08 28.24 34.84 28Q34.60 27.76 34.60 27.44Q34.60 27.12 34.84 26.88Q35.08 26.64 35.40 26.64Q35.72 26.64 35.96 26.88ZM39.68 36.04L39.32 36.40Q39.24 36.08 39.14 35.82Q39.04 35.56 39.02 35.42Q39 35.28 38.96 35.20Q38.92 35.12 38.92 35.04L38.92 35.04L38.92 34.88L38.92 34.56L38.92 34.04L40.04 32.92Q40.44 33.44 41.14 35.96Q41.84 38.48 42.20 38.72L42.20 38.72Q42.32 38.80 42.56 38.80L42.56 38.80Q43.92 36.12 45.32 34.64L45.32 34.64L46.44 33.52Q45.72 34.28 45.08 35.26Q44.44 36.24 44.16 36.76L44.16 36.76L43.12 38.72L42 39.84Q41.88 39.84 41.68 39.88Q41.48 39.92 41.34 39.92Q41.20 39.92 41.08 39.84Q40.96 39.76 40.82 39.52Q40.68 39.28 40.52 38.82Q40.36 38.36 40.24 38L40.24 38L40 37Q39.80 36.36 39.68 36.04L39.68 36.04ZM46.56 40.40L45.44 41.52Q45.44 40.76 45.40 40.30Q45.36 39.84 45.48 39.12Q45.60 38.40 45.66 38Q45.72 37.60 45.92 36.92L45.92 36.92L46.24 35.84Q46.36 35.48 46.64 34.80L46.64 34.80L47.04 33.76L47.48 32.64Q47.76 31.96 47.96 31.52L47.96 31.52L49.08 30.40Q49.08 30.52 48.82 33.70Q48.56 36.88 48.76 39.16Q48.96 41.44 49.88 41.72L49.88 41.72Q50.20 41.80 50.50 41.60Q50.80 41.40 51.16 41Q51.52 40.60 51.72 40.48L51.72 40.48L50.60 41.60Q50.40 41.76 50.04 42.14Q49.68 42.52 49.38 42.72Q49.08 42.92 48.76 42.84L48.76 42.84Q48.16 42.68 47.86 41.74Q47.56 40.80 47.58 39.10Q47.60 37.40 47.64 36.36Q47.68 35.32 47.84 33.48L47.84 33.48Q46.36 37.32 46.56 40.40L46.56 40.40ZM47.88 26.88Q48.12 27.12 48.12 27.44Q48.12 27.76 47.88 28Q47.64 28.24 47.32 28.24Q47 28.24 46.76 28Q46.52 27.76 46.52 27.44Q46.52 27.12 46.76 26.88Q47 26.64 47.32 26.64Q47.64 26.64 47.88 26.88ZM51.80 38.68L51.80 38.68Q54.24 38.24 58.64 37.12L58.64 37.12Q58.72 37.08 58.82 36.96Q58.92 36.84 59 36.76Q59.08 36.68 59.14 36.60Q59.20 36.52 59.20 36.48Q59.20 36.44 59.12 36.40L59.12 36.40Q56.24 35.76 51.80 38.68ZM60.60 37.48L58.48 38.04Q58 38.88 57.68 39.72L57.68 39.72L56.56 40.84Q57 39.64 57.96 38.16L57.96 38.16Q52.76 39.48 50.08 39.92L50.08 39.92L51.20 38.80Q56.84 34.52 60.24 35.28L60.24 35.28Q60.36 35.36 60.30 35.46Q60.24 35.56 60 35.80L60 35.80L59.68 36.12L59.08 37.04L61.72 36.36L60.60 37.48ZM78.96 24.12L78.96 24.12Q77.16 25.32 73.42 27.62Q69.68 29.92 67.84 31.20L67.84 31.20Q67.84 31.24 67.76 31.44Q67.68 31.64 67.66 31.70Q67.64 31.76 67.58 31.92Q67.52 32.08 67.52 32.16Q67.52 32.24 67.54 32.36Q67.56 32.48 67.64 32.56L67.64 32.56Q67.80 32.76 79.80 33.20L79.80 33.20Q79.48 28.56 79.24 26.16L79.24 26.16Q79.12 25.24 78.96 24.12ZM78.92 13.12L78.92 13.12Q78.88 14.28 79 15.66Q79.12 17.04 79.26 17.98Q79.40 18.92 79.68 20.56L79.68 20.56L80.08 23Q81.48 22.04 82.64 21.16L82.64 21.16Q83.12 20.28 83.24 19.88L83.24 19.88Q83.72 18.08 82.30 16.10Q80.88 14.12 78.92 13.12ZM79.84 34.08L79.56 34.36Q79.44 34.36 75.94 34.24Q72.44 34.12 69.52 33.96Q66.60 33.80 66.52 33.68L66.52 33.68Q66.36 33.32 66.40 33.12Q66.44 32.92 66.64 32.50Q66.84 32.08 66.88 31.88L66.88 31.88L68 30.76Q70.04 29.32 73.92 26.88L73.92 26.88L78.92 23.80Q78.80 23.16 78.60 22L78.60 22L78.28 20.08Q78.16 19.36 78.02 18.28Q77.88 17.20 77.82 16.38Q77.76 15.56 77.76 14.58Q77.76 13.60 77.88 12.68L77.88 12.68L79 11.56Q81.16 12.20 83.04 14.44Q84.92 16.68 84.36 18.76L84.36 18.76Q84.28 19.04 84.14 19.32Q84 19.60 83.80 19.92Q83.60 20.24 83.52 20.44L83.52 20.44L82.40 21.56Q81.36 22.44 80.12 23.28L80.12 23.28Q80.28 24.20 80.36 25.04L80.36 25.04Q80.60 27.48 80.88 31.52L80.88 31.52Q81.16 35.72 81.24 37L81.24 37Q81.32 37.68 81.44 38.60L81.44 38.60Q91.20 36 104.96 35.64L104.96 35.64L103.84 36.76Q90.84 37.12 81.56 39.40L81.56 39.40Q81.96 42.24 82 43.44L82 43.44L80.88 44.56Q80.72 44.68 80.42 44.98Q80.12 45.28 79.86 45.48Q79.60 45.68 79.32 45.76L79.32 45.76Q78.16 46.20 76.30 46.40Q74.44 46.60 72.12 46.66Q69.80 46.72 69 46.80Q68.20 46.88 66.88 47L66.88 47Q63.84 47.32 63.84 47.12L63.84 47.12Q63.84 47 63.86 46.88Q63.88 46.76 63.96 46.62Q64.04 46.48 64.10 46.40Q64.16 46.32 64.30 46.20Q64.44 46.08 64.52 46L64.52 46L64.80 45.84Q64.96 45.68 65 45.64L65 45.64Q64.96 45.80 64.98 46Q65 46.20 68 45.88L68 45.88Q69.32 45.76 70.12 45.68Q70.92 45.60 73.26 45.52Q75.60 45.44 77.44 45.26Q79.28 45.08 80.44 44.64L80.44 44.64Q80.64 44.56 80.88 44.40L80.88 44.40Q80.84 43.68 80.28 39.72L80.28 39.72Q73.08 41.60 65.52 45.16L65.52 45.16L66.40 44.28Q66.28 44.40 65.90 44.68Q65.52 44.96 65.30 45.18Q65.08 45.40 65 45.64L65 45.64Q65.36 45.36 65.52 45.16L65.52 45.16L66.40 44.28L66.64 44.04Q73.60 40.76 80.20 38.92L80.20 38.92L80.12 38.12Q80 36.60 79.84 34.08L79.84 34.08ZM104.48 39.92L104.48 39.92Q104.44 40.08 104.22 40.46Q104 40.84 103.96 41Q103.92 41.16 103.96 41.52L103.96 41.52Q104.04 41.68 104.66 41.40Q105.28 41.12 106.34 40.44Q107.40 39.76 108.44 38.88L108.44 38.88Q108.44 37.92 108.20 37.04L108.20 37.04Q106.40 38.16 104.48 39.92ZM110.32 32.04L109.20 33.16Q109.28 32.84 109.68 32.12L109.68 32.12Q110.08 31.32 109.88 31.32L109.88 31.32Q109.80 31.32 109.60 31.44L109.60 31.44Q109.16 32.08 108.96 32.58Q108.76 33.08 108.76 33.54Q108.76 34 108.80 34.26Q108.84 34.52 109.04 35.06Q109.24 35.60 109.32 35.88L109.32 35.88Q111.08 34.80 113 34.08L113 34.08L111.88 35.20Q110.60 35.68 109.40 36.32L109.40 36.32Q109.56 37.04 109.56 37.84L109.56 37.84L108.44 38.96Q107.28 40.12 105.94 41.08Q104.60 42.04 103.76 42.44Q102.92 42.84 102.84 42.64L102.84 42.64Q102.72 42.40 102.82 42.12Q102.92 41.84 103.12 41.50Q103.32 41.16 103.40 40.96L103.40 40.96L104.52 39.84Q106.44 37.96 108.08 36.72L108.08 36.72Q108.04 36.56 107.88 36.12Q107.72 35.68 107.70 35.52Q107.68 35.36 107.62 35Q107.56 34.64 107.64 34.38Q107.72 34.12 107.86 33.72Q108 33.32 108.28 32.86Q108.56 32.40 109 31.80L109 31.80L110.12 30.68Q111.08 30.04 111.12 30.28L111.12 30.28Q111.12 30.32 110.52 31.52L110.52 31.52Q110.40 31.80 110.32 32.04L110.32 32.04ZM113.08 38.68L113.08 38.68Q115.52 38.24 119.92 37.12L119.92 37.12Q120 37.08 120.10 36.96Q120.20 36.84 120.28 36.76Q120.36 36.68 120.42 36.60Q120.48 36.52 120.48 36.48Q120.48 36.44 120.40 36.40L120.40 36.40Q117.52 35.76 113.08 38.68ZM121.88 37.48L119.76 38.04Q119.28 38.88 118.96 39.72L118.96 39.72L117.84 40.84Q118.28 39.64 119.24 38.16L119.24 38.16Q114.04 39.48 111.36 39.92L111.36 39.92L112.48 38.80Q118.12 34.52 121.52 35.28L121.52 35.28Q121.64 35.36 121.58 35.46Q121.52 35.56 121.28 35.80L121.28 35.80L120.96 36.12L120.36 37.04L123 36.36L121.88 37.48ZM128.64 39.80L128.64 39.80Q129.16 39.08 129.28 38.64L129.28 38.64Q129.88 36.32 124.40 36.52L124.40 36.52Q124.04 37.84 123.92 38.82Q123.80 39.80 123.94 40.56Q124.08 41.32 124.56 41.52Q125.04 41.72 126.08 41.32Q127.12 40.92 128.64 39.80ZM120.36 36.84L121.48 35.72L124.16 34.72Q125.12 31.72 127.40 26.08Q129.68 20.44 130.60 17.64L130.60 17.64L131.72 16.52Q131.44 17.60 130.52 20.66Q129.60 23.72 129.12 25.82Q128.64 27.92 128.48 30.12L128.48 30.12L127.36 31.24Q127.56 28.48 128.44 25.12L128.44 25.12Q126.20 30.76 125.20 33.84L125.20 33.84L125.04 34.40Q128.56 33.16 131.40 32.76L131.40 32.76L130.28 33.88Q127.76 34.28 124.76 35.24L124.76 35.24L124.72 35.44Q125.80 35.32 126.88 35.38Q127.96 35.44 128.84 35.60Q129.72 35.76 130.16 36.26Q130.60 36.76 130.40 37.52L130.40 37.52Q130.32 37.80 130.16 38.08Q130 38.36 129.76 38.70Q129.52 39.04 129.40 39.24L129.40 39.24L128.28 40.36Q126.68 41.60 125.56 42.20Q124.44 42.80 123.84 42.72Q123.24 42.64 122.96 42.20Q122.68 41.76 122.74 40.82Q122.80 39.88 123 38.88Q123.20 37.88 123.60 36.56L123.60 36.56Q122.80 36.60 121.68 36.72Q120.56 36.84 120.36 36.84L120.36 36.84ZM132.80 34.96L132.80 34.96Q130.40 37.80 131.24 38.84L131.24 38.84Q131.80 37.96 134.60 34.40L134.60 34.40Q135.48 33.32 135.24 33.32L135.24 33.32Q134.92 33.36 132.80 34.96ZM131.04 40.52L131.04 40.52L130.04 41.52Q130.08 41 130.44 40.28L130.44 40.28Q128.76 39.24 132.40 35.28L132.40 35.28L133.52 34.16Q136.44 31.92 136.44 32.24L136.44 32.24Q136.44 32.40 134.36 34.96L134.36 34.96Q132.28 37.64 131.56 39.12L131.56 39.12Q132.24 39.52 133.64 39.56Q135.04 39.60 137.26 39.44Q139.48 39.28 140.56 39.28L140.56 39.28L139.44 40.40Q138.36 40.40 136.34 40.54Q134.32 40.68 133.36 40.70Q132.40 40.72 131.04 40.52ZM144.64 16.12L145.52 15.24L145.76 15.88L144.88 16.76L144.76 16.36Q143.68 18.28 142.90 21.94Q142.12 25.60 141.74 29.86Q141.36 34.12 141.18 37.14Q141.00 40.16 140.96 42.80L140.96 42.80L140.08 43.68Q140.16 40.72 140.36 37.44Q140.56 34.16 141.02 29.52Q141.48 24.88 142.42 21.20Q143.36 17.52 144.64 16.12L144.64 16.12ZM160.64 16.04L162.12 14.96Q162.00 13.72 161.76 13.36L161.76 13.36Q161.60 13.12 160.64 12.88L160.64 12.88Q159.56 14.72 159.00 17.20L159.00 17.20L160.64 16.04ZM162.16 15.36L162.16 15.36Q161.48 15.76 158.88 17.60L158.88 17.60Q158.72 18.48 158.60 19.44L158.60 19.44Q160.60 18.96 162.20 19.40L162.20 19.40Q162.24 16.84 162.16 15.36ZM155.96 20.36L155.96 20.36Q156.80 19.96 157.60 19.72L157.60 19.72Q157.68 19.04 157.84 18.40L157.84 18.40Q156.36 19.92 155.96 20.36ZM151.12 33.52L151.12 33.52Q151.08 37.60 152.40 41.48L152.40 41.48Q152.80 42.64 153.28 43.64Q153.76 44.64 154.52 45.74Q155.28 46.84 156.30 47.42Q157.32 48 158.48 47.80L158.48 47.80Q161.00 43.28 161.84 31.80L161.84 31.80Q158.16 32.76 154.80 33.24L154.80 33.24Q152.60 33.56 151.12 33.52ZM151.16 32.32L151.16 32.32Q153.00 32.52 155.92 32.12L155.92 32.12Q158.76 31.72 161.88 30.96L161.88 30.96Q162.16 26.56 162.16 22.24L162.16 22.24Q162.16 22.04 162.20 20.96L162.20 20.96L161.88 20.80Q160.40 20.16 158.48 20.40L158.48 20.40Q158.32 22 158.16 26.12L158.16 26.12L157.04 27.24Q157.20 22.48 157.44 20.56L157.44 20.56Q156.32 20.84 155.12 21.36L155.12 21.36L154.64 22Q151.52 26.48 151.16 32.32ZM148.60 26.16L149.72 25.04Q150.20 24.64 151.04 23.84L151.04 23.84L152.64 22.40Q153.36 21.80 154.08 21.36L154.08 21.36Q154.96 20.84 155.84 20.40L155.84 20.40Q157.48 18.72 157.80 18.36L157.80 18.36L157.88 18.28Q158.64 15 160.32 12.80L160.32 12.80L161.44 11.68Q161.60 11.72 161.94 11.78Q162.28 11.84 162.52 11.94Q162.76 12.04 162.88 12.24L162.88 12.24Q163.16 12.68 163.28 14.24L163.28 14.24Q163.88 13.88 164.44 13.60L164.44 13.60Q165.80 12.96 167.60 12.48Q169.40 12 171.48 11.76Q173.56 11.52 175.54 11.76Q177.52 12 179.14 12.70Q180.76 13.40 181.76 14.92Q182.76 16.44 182.80 18.60L182.80 18.60Q182.80 19.04 182.70 19.50Q182.60 19.96 182.40 20.54Q182.20 21.12 182.12 21.44L182.12 21.44L181.00 22.56Q180.68 22.84 180.10 23.42Q179.52 24 179.02 24.42Q178.52 24.84 178.04 25.16L178.04 25.16Q173.64 28 166.96 30.28L166.96 30.28Q167.00 30.72 167.06 32.04Q167.12 33.36 167.14 33.92Q167.16 34.48 167.26 35.30Q167.36 36.12 167.48 36.68L167.48 36.68Q168.32 40.20 169.56 42.32L169.56 42.32Q170.28 43.52 171.12 44.56Q171.96 45.60 172.98 46.44Q174.00 47.28 174.90 47.92Q175.80 48.56 177.12 49.12L177.12 49.12L179.36 50.04Q180.24 50.40 181.80 50.80L181.80 50.80L184.24 51.44Q185.12 51.68 186.80 52.04L186.80 52.04Q187.88 52.32 188.44 52.44L188.44 52.44L187.32 53.56L185.68 53.20Q183.96 52.80 183.12 52.56L183.12 52.56L180.68 51.92Q179.12 51.52 178.20 51.16Q177.28 50.80 175.98 50.24Q174.68 49.68 173.78 49.04Q172.88 48.40 171.84 47.58Q170.80 46.76 170.00 45.72L170.00 45.72Q169.16 44.68 168.44 43.44L168.44 43.44Q167.20 41.32 166.36 37.80L166.36 37.80Q166.16 37.04 166.08 36.02Q166.00 35 165.92 33.18Q165.84 31.36 165.80 30.68L165.80 30.68L162.92 31.52Q161.92 43.84 158.92 47.72L158.92 47.72L157.80 48.84Q156.80 49.12 155.86 48.82Q154.92 48.52 154.24 47.86Q153.56 47.20 152.94 46.22Q152.32 45.24 151.96 44.40Q151.60 43.56 151.28 42.60L151.28 42.60Q149.72 38.12 150.04 33.48L150.04 33.48Q146.04 33.04 146.68 29.92L146.68 29.92Q146.80 29.32 147.12 28.70Q147.44 28.08 147.92 27.34Q148.40 26.60 148.60 26.16L148.60 26.16ZM149.60 25.28L149.60 25.28Q149.44 25.60 148.96 26.34Q148.48 27.08 148.20 27.64Q147.92 28.20 147.80 28.80L147.80 28.80Q147.24 31.48 150.16 32.16L150.16 32.16Q150.76 27.12 153.52 23.12L153.52 23.12Q154.08 22.32 154.84 21.48L154.84 21.48Q153.88 21.92 152.96 22.48L152.96 22.48Q151.92 23.12 149.60 25.28ZM166.92 29.52L166.92 29.52Q174.36 27.16 179.16 24.04L179.16 24.04Q179.88 23.56 181.00 22.48L181.00 22.48Q181.08 22.20 181.28 21.62Q181.48 21.04 181.58 20.60Q181.68 20.16 181.68 19.72L181.68 19.72Q181.64 17.56 180.64 16.04Q179.64 14.52 178.02 13.84Q176.40 13.16 174.40 12.90Q172.40 12.64 170.34 12.90Q168.28 13.16 166.46 13.62Q164.64 14.08 163.32 14.72L163.32 14.72Q163.40 16.44 163.32 19.84L163.32 19.84Q164.28 20.36 164.98 21.36Q165.68 22.36 166.06 23.76Q166.44 25.16 166.62 26.48Q166.80 27.80 166.92 29.52ZM165.72 29.88L165.72 29.88Q165.28 23.88 163.28 21.80L163.28 21.80Q163.28 26.32 162.96 30.68L162.96 30.68Q164.36 30.32 165.72 29.88ZM193.08 36.64L191.96 37.76Q190.04 39.52 188.04 40.36L188.04 40.36Q186.20 41.16 186.36 39.92L186.36 39.92Q186.44 39 187.64 37.08L187.64 37.08L188.76 35.96Q186.44 39.72 188.20 39.52L188.20 39.52Q189.56 39.36 192.20 37.40L192.20 37.40Q192.80 36.16 191.36 36.20L191.36 36.20Q191.00 36.20 190.12 36.32L190.12 36.32Q189.52 36.40 189.28 36.40L189.28 36.40L190.40 35.28Q190.52 35.28 191.64 35.12L191.64 35.12Q190.84 33.92 188.76 35.96L188.76 35.96L189.28 35.44L189.96 34.76Q190.24 34.48 190.62 34.14Q191.00 33.80 191.32 33.68Q191.64 33.56 191.96 33.52Q192.28 33.48 192.56 33.74Q192.84 34 193.00 34.52L193.00 34.52L192.48 35.04Q193.24 35.04 193.44 35.34Q193.64 35.64 193.08 36.64L193.08 36.64ZM203.96 17.56L203.96 17.56Q200.12 22.72 197.80 34.56L197.80 34.56Q200.56 30.36 202.24 25.98Q203.92 21.60 203.96 17.56ZM198.28 38.60L197.16 39.72Q197.40 39.32 198.68 37.68Q199.96 36.04 200.32 35.08L200.32 35.08Q200.92 33.40 198.24 34.80L198.24 34.80Q198.04 34.92 197.80 35.08L197.80 35.08L197.68 35.24Q196.12 43.40 195.64 51.96L195.64 51.96L194.52 53.08Q194.96 44.80 196.44 36.84L196.44 36.84Q195.08 38.60 193.60 40.12L193.60 40.12L192.48 41.24Q189.80 41.92 191.68 39.76L191.68 39.76Q192.04 39.36 192.80 38.60L192.80 38.60L193.16 38.24Q190.72 40.80 193.48 40.16L193.48 40.16Q195.08 38.36 196.56 36.36L196.56 36.36L196.64 35.76Q194.48 37.16 193.16 38.24L193.16 38.24L194.28 37.12Q195.04 36.48 196.76 35.32L196.76 35.32Q199.40 22 203.96 17.36L203.96 17.36L205.08 16.24Q205.08 20.52 203.24 25.20Q201.40 29.88 198.36 34.28L198.36 34.28Q201.92 32.08 201.52 33.72L201.52 33.72L201.44 33.96Q201.12 34.92 199.82 36.56Q198.52 38.20 198.28 38.60L198.28 38.60ZM208.44 35L208.44 35Q208.08 37.44 207.72 38.88L207.72 38.88Q207.60 39.32 207.10 40.14Q206.60 40.96 206.48 41.40L206.48 41.40L205.36 42.52Q205.40 41.52 205.16 35.88L205.16 35.88L204.72 36.32Q204.48 34.84 204 33.28L204 33.28L205.12 32.16Q205.24 32.32 205.52 32.60Q205.80 32.88 205.98 33.14Q206.16 33.40 206.24 33.68L206.24 33.68Q206.36 34.16 206.48 40.36L206.48 40.36Q206.56 40.16 206.60 40L206.60 40Q206.84 39.04 207.04 37.92L207.04 37.92L207.40 35.44L207.72 33.32L208.84 32.20Q209.64 33.80 209.96 35.24L209.96 35.24Q210.08 35.72 210.20 35.80Q210.32 35.88 210.96 35.80L210.96 35.80L211.20 35.80L210.08 36.92Q210 36.92 209.84 36.96L209.84 36.96Q209.20 37 209.06 36.92Q208.92 36.84 208.84 36.36L208.84 36.36Q208.68 35.64 208.44 35ZM211.32 40.40L210.20 41.52Q210.20 40.76 210.16 40.30Q210.12 39.84 210.24 39.12Q210.36 38.40 210.42 38Q210.48 37.60 210.68 36.92L210.68 36.92L211 35.84Q211.12 35.48 211.40 34.80L211.40 34.80L211.80 33.76L212.24 32.64Q212.52 31.96 212.72 31.52L212.72 31.52L213.84 30.40Q213.84 30.52 213.58 33.70Q213.32 36.88 213.52 39.16Q213.72 41.44 214.64 41.72L214.64 41.72Q214.96 41.80 215.26 41.60Q215.56 41.40 215.92 41Q216.28 40.60 216.48 40.48L216.48 40.48L215.36 41.60Q215.16 41.76 214.80 42.14Q214.44 42.52 214.14 42.72Q213.84 42.92 213.52 42.84L213.52 42.84Q212.92 42.68 212.62 41.74Q212.32 40.80 212.34 39.10Q212.36 37.40 212.40 36.36Q212.44 35.32 212.60 33.48L212.60 33.48Q211.12 37.32 211.32 40.40L211.32 40.40ZM212.64 26.88Q212.88 27.12 212.88 27.44Q212.88 27.76 212.64 28Q212.40 28.24 212.08 28.24Q211.76 28.24 211.52 28Q211.28 27.76 211.28 27.44Q211.28 27.12 211.52 26.88Q211.76 26.64 212.08 26.64Q212.40 26.64 212.64 26.88ZM218.84 31.16L216.76 32.68Q215.40 34.20 215.52 34.56L215.52 34.56Q215.88 35.60 217.48 36.80L217.48 36.80Q217.80 36.20 219.64 33.56L219.64 33.56Q219.68 33.48 220.44 32.44L220.44 32.44L221.80 30.48Q222.44 29.60 222.44 29.56L222.44 29.56Q222.36 29.20 221.20 29.72L221.20 29.72Q220.56 30 218.84 31.16L218.84 31.16ZM219.92 44.28L219.92 44.28Q216.44 49.08 215.40 52.12L215.40 52.12Q215.24 52.56 215.20 53.10Q215.16 53.64 215.16 54.34Q215.16 55.04 215.12 55.36L215.12 55.36Q220.24 49.64 219.92 44.28ZM215.72 40.04L214.44 40.40L215.56 39.28L216.24 39.08L216.68 38.20Q216.64 38.16 216.38 37.96Q216.12 37.76 216.06 37.72Q216 37.68 215.76 37.50Q215.52 37.32 215.44 37.22Q215.36 37.12 215.20 36.96Q215.04 36.80 214.94 36.68Q214.84 36.56 214.72 36.38Q214.60 36.20 214.52 36.04Q214.44 35.88 214.40 35.68L214.40 35.68Q214.36 35.56 214.48 35.30Q214.60 35.04 214.92 34.68L214.92 34.68L215.44 34.04L216.04 33.36Q216.36 33 216.44 32.92L216.44 32.92L217.56 31.80L218.32 31.24L219.20 30.56Q219.60 30.28 219.96 30.04L219.96 30.04Q221.68 28.88 222.32 28.60L222.32 28.60Q223.48 28.08 223.56 28.44L223.56 28.44Q223.56 28.48 222.92 29.36L222.92 29.36L221.56 31.32Q220.80 32.36 220.76 32.44L220.76 32.44Q219.16 34.76 218.82 35.30Q218.48 35.84 217.84 37.08L217.84 37.08Q218.64 37.72 219.16 38.24Q219.68 38.76 220.22 39.84Q220.76 40.92 220.96 42.32L220.96 42.32L221 42.44L222.60 40.20L223.72 39.08L221 42.80Q221.60 48.84 215.12 55.48L215.12 55.48L214 56.60Q214.04 56.24 214.02 55.54Q214 54.84 214.06 54.28Q214.12 53.72 214.28 53.24L214.28 53.24Q215 51.20 216.38 49Q217.76 46.80 219.88 43.92L219.88 43.92Q219.88 43.68 219.84 43.44L219.84 43.44Q219.56 41.60 218.86 40.48Q218.16 39.36 217.08 38.48L217.08 38.48L216.84 38.92L215.72 40.04ZM228.36 36.64L227.24 37.76Q225.32 39.52 223.32 40.36L223.32 40.36Q221.48 41.16 221.64 39.92L221.64 39.92Q221.72 39 222.92 37.08L222.92 37.08L224.04 35.96Q221.72 39.72 223.48 39.52L223.48 39.52Q224.84 39.36 227.48 37.40L227.48 37.40Q228.08 36.16 226.64 36.20L226.64 36.20Q226.28 36.20 225.40 36.32L225.40 36.32Q224.80 36.40 224.56 36.40L224.56 36.40L225.68 35.28Q225.80 35.28 226.92 35.12L226.92 35.12Q226.12 33.92 224.04 35.96L224.04 35.96L224.56 35.44L225.24 34.76Q225.52 34.48 225.90 34.14Q226.28 33.80 226.60 33.68Q226.92 33.56 227.24 33.52Q227.56 33.48 227.84 33.74Q228.12 34 228.28 34.52L228.28 34.52L227.76 35.04Q228.52 35.04 228.72 35.34Q228.92 35.64 228.36 36.64L228.36 36.64Z" fill="black"></path></svg>